<mxfile host="app.diagrams.net" agent="Mozilla/5.0 (Windows NT 10.0; Win64; x64) AppleWebKit/537.36 (KHTML, like Gecko) Chrome/134.0.0.0 Safari/537.36" version="26.0.16">
  <diagram id="Ht1M8jgEwFfnCIfOTk4-" name="Page-1">
    <mxGraphModel dx="2074" dy="1104" grid="1" gridSize="10" guides="1" tooltips="1" connect="1" arrows="1" fold="1" page="1" pageScale="1" pageWidth="1169" pageHeight="827" math="0" shadow="0">
      <root>
        <mxCell id="0" />
        <mxCell id="1" parent="0" />
        <mxCell id="el8LdiSVNWTU0y29hnF0-40" value="&lt;b&gt;GitHub&lt;/b&gt;" style="rounded=1;whiteSpace=wrap;html=1;dashed=1;dashPattern=8 8;verticalAlign=top;" vertex="1" parent="1">
          <mxGeometry x="360" y="580" width="320" height="160" as="geometry" />
        </mxCell>
        <mxCell id="el8LdiSVNWTU0y29hnF0-39" value="&lt;b&gt;AWS&lt;/b&gt;" style="rounded=1;whiteSpace=wrap;html=1;dashed=1;dashPattern=8 8;verticalAlign=top;" vertex="1" parent="1">
          <mxGeometry x="210" y="120" width="670" height="440" as="geometry" />
        </mxCell>
        <mxCell id="UEzPUAAOIrF-is8g5C7q-142" style="edgeStyle=orthogonalEdgeStyle;rounded=0;orthogonalLoop=1;jettySize=auto;html=1;startArrow=open;startFill=0;endArrow=open;endFill=0;strokeWidth=2;strokeColor=#808080;" parent="1" source="el8LdiSVNWTU0y29hnF0-1" target="UEzPUAAOIrF-is8g5C7q-116" edge="1">
          <mxGeometry relative="1" as="geometry">
            <mxPoint x="500" y="380" as="sourcePoint" />
            <mxPoint x="633.000887149974" y="380" as="targetPoint" />
            <Array as="points" />
          </mxGeometry>
        </mxCell>
        <mxCell id="el8LdiSVNWTU0y29hnF0-31" value="OAC" style="edgeLabel;html=1;align=center;verticalAlign=middle;resizable=0;points=[];" vertex="1" connectable="0" parent="UEzPUAAOIrF-is8g5C7q-142">
          <mxGeometry x="-0.0714" y="-4" relative="1" as="geometry">
            <mxPoint y="-4" as="offset" />
          </mxGeometry>
        </mxCell>
        <mxCell id="UEzPUAAOIrF-is8g5C7q-109" value="User" style="outlineConnect=0;gradientColor=none;fontColor=#545B64;strokeColor=none;fillColor=#879196;dashed=0;verticalLabelPosition=bottom;verticalAlign=top;align=center;html=1;fontSize=12;fontStyle=0;aspect=fixed;shape=mxgraph.aws4.illustration_desktop;pointerEvents=1;labelBackgroundColor=#ffffff;" parent="1" vertex="1">
          <mxGeometry x="30" y="329.5" width="100" height="91" as="geometry" />
        </mxCell>
        <mxCell id="UEzPUAAOIrF-is8g5C7q-116" value="Amazon S3&lt;div&gt;private Bucket&lt;/div&gt;" style="outlineConnect=0;fontColor=#232F3E;gradientColor=#60A337;gradientDirection=north;fillColor=#277116;strokeColor=#ffffff;dashed=0;verticalLabelPosition=bottom;verticalAlign=top;align=center;html=1;fontSize=12;fontStyle=0;aspect=fixed;shape=mxgraph.aws4.resourceIcon;resIcon=mxgraph.aws4.s3;labelBackgroundColor=#ffffff;" parent="1" vertex="1">
          <mxGeometry x="560.0000000000002" y="336" width="78" height="78" as="geometry" />
        </mxCell>
        <mxCell id="el8LdiSVNWTU0y29hnF0-1" value="Cloudfront" style="sketch=0;points=[[0,0,0],[0.25,0,0],[0.5,0,0],[0.75,0,0],[1,0,0],[0,1,0],[0.25,1,0],[0.5,1,0],[0.75,1,0],[1,1,0],[0,0.25,0],[0,0.5,0],[0,0.75,0],[1,0.25,0],[1,0.5,0],[1,0.75,0]];outlineConnect=0;fontColor=#232F3E;fillColor=#8C4FFF;strokeColor=#ffffff;dashed=0;verticalLabelPosition=bottom;verticalAlign=top;align=center;html=1;fontSize=12;fontStyle=0;aspect=fixed;shape=mxgraph.aws4.resourceIcon;resIcon=mxgraph.aws4.cloudfront;labelBackgroundColor=default;" vertex="1" parent="1">
          <mxGeometry x="370" y="336" width="78" height="78" as="geometry" />
        </mxCell>
        <mxCell id="el8LdiSVNWTU0y29hnF0-2" value="GitHub Actions" style="dashed=0;outlineConnect=0;html=1;align=center;labelPosition=center;verticalLabelPosition=bottom;verticalAlign=top;shape=mxgraph.weblogos.github;labelBackgroundColor=default;" vertex="1" parent="1">
          <mxGeometry x="371.5" y="618" width="75" height="75" as="geometry" />
        </mxCell>
        <mxCell id="el8LdiSVNWTU0y29hnF0-13" style="edgeStyle=orthogonalEdgeStyle;rounded=0;orthogonalLoop=1;jettySize=auto;html=1;exitX=1;exitY=0.5;exitDx=0;exitDy=0;exitPerimeter=0;strokeWidth=2;strokeColor=#808080;" edge="1" parent="1" source="el8LdiSVNWTU0y29hnF0-9" target="el8LdiSVNWTU0y29hnF0-1">
          <mxGeometry relative="1" as="geometry" />
        </mxCell>
        <mxCell id="el8LdiSVNWTU0y29hnF0-9" value="Route 53&lt;div&gt;https://www.fromthehart.tech&lt;/div&gt;" style="sketch=0;points=[[0,0,0],[0.25,0,0],[0.5,0,0],[0.75,0,0],[1,0,0],[0,1,0],[0.25,1,0],[0.5,1,0],[0.75,1,0],[1,1,0],[0,0.25,0],[0,0.5,0],[0,0.75,0],[1,0.25,0],[1,0.5,0],[1,0.75,0]];outlineConnect=0;fontColor=#232F3E;fillColor=#8C4FFF;strokeColor=#ffffff;dashed=0;verticalLabelPosition=bottom;verticalAlign=top;align=center;html=1;fontSize=12;fontStyle=0;aspect=fixed;shape=mxgraph.aws4.resourceIcon;resIcon=mxgraph.aws4.route_53;labelBackgroundColor=default;" vertex="1" parent="1">
          <mxGeometry x="260" y="150" width="78" height="78" as="geometry" />
        </mxCell>
        <mxCell id="el8LdiSVNWTU0y29hnF0-12" value="ACM&lt;div&gt;*.fromthehart.tech&lt;/div&gt;" style="sketch=0;points=[[0,0,0],[0.25,0,0],[0.5,0,0],[0.75,0,0],[1,0,0],[0,1,0],[0.25,1,0],[0.5,1,0],[0.75,1,0],[1,1,0],[0,0.25,0],[0,0.5,0],[0,0.75,0],[1,0.25,0],[1,0.5,0],[1,0.75,0]];outlineConnect=0;fontColor=#232F3E;fillColor=#DD344C;strokeColor=#ffffff;dashed=0;verticalLabelPosition=bottom;verticalAlign=top;align=center;html=1;fontSize=12;fontStyle=0;aspect=fixed;shape=mxgraph.aws4.resourceIcon;resIcon=mxgraph.aws4.certificate_manager_3;labelBackgroundColor=default;" vertex="1" parent="1">
          <mxGeometry x="482" y="150" width="78" height="78" as="geometry" />
        </mxCell>
        <mxCell id="el8LdiSVNWTU0y29hnF0-14" style="edgeStyle=orthogonalEdgeStyle;rounded=0;orthogonalLoop=1;jettySize=auto;html=1;entryX=0.5;entryY=0;entryDx=0;entryDy=0;entryPerimeter=0;exitX=0;exitY=0.5;exitDx=0;exitDy=0;exitPerimeter=0;strokeColor=#808080;strokeWidth=2;" edge="1" parent="1" source="el8LdiSVNWTU0y29hnF0-12" target="el8LdiSVNWTU0y29hnF0-1">
          <mxGeometry relative="1" as="geometry" />
        </mxCell>
        <mxCell id="el8LdiSVNWTU0y29hnF0-16" style="edgeStyle=orthogonalEdgeStyle;rounded=0;orthogonalLoop=1;jettySize=auto;html=1;strokeWidth=2;strokeColor=#808080;" edge="1" parent="1" source="el8LdiSVNWTU0y29hnF0-15" target="el8LdiSVNWTU0y29hnF0-2">
          <mxGeometry relative="1" as="geometry" />
        </mxCell>
        <mxCell id="el8LdiSVNWTU0y29hnF0-17" value="On Push" style="edgeLabel;html=1;align=center;verticalAlign=middle;resizable=0;points=[];" vertex="1" connectable="0" parent="el8LdiSVNWTU0y29hnF0-16">
          <mxGeometry x="-0.0133" y="3" relative="1" as="geometry">
            <mxPoint y="-3" as="offset" />
          </mxGeometry>
        </mxCell>
        <mxCell id="el8LdiSVNWTU0y29hnF0-15" value="from-the-hart-tech-website&lt;div&gt;&amp;nbsp;Repository&lt;/div&gt;" style="verticalLabelPosition=bottom;html=1;verticalAlign=top;align=center;strokeColor=none;fillColor=#00BEF2;shape=mxgraph.azure.github_code;pointerEvents=1;labelBackgroundColor=default;" vertex="1" parent="1">
          <mxGeometry x="574" y="630.5" width="50" height="50" as="geometry" />
        </mxCell>
        <mxCell id="el8LdiSVNWTU0y29hnF0-26" value="Developer" style="outlineConnect=0;gradientColor=none;fontColor=#545B64;strokeColor=none;fillColor=#879196;dashed=0;verticalLabelPosition=bottom;verticalAlign=top;align=center;html=1;fontSize=12;fontStyle=0;aspect=fixed;shape=mxgraph.aws4.illustration_desktop;pointerEvents=1;labelBackgroundColor=#ffffff;" vertex="1" parent="1">
          <mxGeometry x="739" y="610" width="100" height="91" as="geometry" />
        </mxCell>
        <mxCell id="el8LdiSVNWTU0y29hnF0-27" style="edgeStyle=orthogonalEdgeStyle;rounded=0;orthogonalLoop=1;jettySize=auto;html=1;entryX=1;entryY=0.5;entryDx=0;entryDy=0;entryPerimeter=0;strokeColor=#808080;strokeWidth=2;" edge="1" parent="1" source="el8LdiSVNWTU0y29hnF0-26" target="el8LdiSVNWTU0y29hnF0-15">
          <mxGeometry relative="1" as="geometry" />
        </mxCell>
        <mxCell id="el8LdiSVNWTU0y29hnF0-29" value="&lt;span style=&quot;background-color: rgb(255, 255, 255);&quot;&gt;IAM&amp;nbsp;&lt;/span&gt;&lt;div&gt;GitHub Actions Role&lt;/div&gt;" style="sketch=0;points=[[0,0,0],[0.25,0,0],[0.5,0,0],[0.75,0,0],[1,0,0],[0,1,0],[0.25,1,0],[0.5,1,0],[0.75,1,0],[1,1,0],[0,0.25,0],[0,0.5,0],[0,0.75,0],[1,0.25,0],[1,0.5,0],[1,0.75,0]];outlineConnect=0;fontColor=#232F3E;fillColor=#DD344C;strokeColor=#ffffff;dashed=0;verticalLabelPosition=bottom;verticalAlign=top;align=center;html=1;fontSize=12;fontStyle=0;aspect=fixed;shape=mxgraph.aws4.resourceIcon;resIcon=mxgraph.aws4.identity_and_access_management;" vertex="1" parent="1">
          <mxGeometry x="750" y="336" width="78" height="78" as="geometry" />
        </mxCell>
        <mxCell id="el8LdiSVNWTU0y29hnF0-32" style="edgeStyle=orthogonalEdgeStyle;rounded=0;orthogonalLoop=1;jettySize=auto;html=1;entryX=0.5;entryY=1;entryDx=0;entryDy=0;entryPerimeter=0;strokeColor=#808080;strokeWidth=2;" edge="1" parent="1" source="el8LdiSVNWTU0y29hnF0-2" target="el8LdiSVNWTU0y29hnF0-1">
          <mxGeometry relative="1" as="geometry" />
        </mxCell>
        <mxCell id="el8LdiSVNWTU0y29hnF0-33" value="Invalidate Cache" style="edgeLabel;html=1;align=center;verticalAlign=middle;resizable=0;points=[];" vertex="1" connectable="0" parent="el8LdiSVNWTU0y29hnF0-32">
          <mxGeometry x="-0.0392" y="2" relative="1" as="geometry">
            <mxPoint as="offset" />
          </mxGeometry>
        </mxCell>
        <mxCell id="el8LdiSVNWTU0y29hnF0-34" style="edgeStyle=orthogonalEdgeStyle;rounded=0;orthogonalLoop=1;jettySize=auto;html=1;strokeColor=#808080;strokeWidth=2;" edge="1" parent="1" source="el8LdiSVNWTU0y29hnF0-2" target="UEzPUAAOIrF-is8g5C7q-116">
          <mxGeometry relative="1" as="geometry">
            <Array as="points">
              <mxPoint x="409" y="550" />
              <mxPoint x="599" y="550" />
            </Array>
          </mxGeometry>
        </mxCell>
        <mxCell id="el8LdiSVNWTU0y29hnF0-35" value="Sync Static Files" style="edgeLabel;html=1;align=center;verticalAlign=middle;resizable=0;points=[];" vertex="1" connectable="0" parent="el8LdiSVNWTU0y29hnF0-34">
          <mxGeometry x="0.4924" y="1" relative="1" as="geometry">
            <mxPoint y="6" as="offset" />
          </mxGeometry>
        </mxCell>
        <mxCell id="el8LdiSVNWTU0y29hnF0-36" style="edgeStyle=orthogonalEdgeStyle;rounded=0;orthogonalLoop=1;jettySize=auto;html=1;strokeColor=#808080;strokeWidth=2;" edge="1" parent="1" source="el8LdiSVNWTU0y29hnF0-2" target="el8LdiSVNWTU0y29hnF0-29">
          <mxGeometry relative="1" as="geometry">
            <Array as="points">
              <mxPoint x="409" y="550" />
              <mxPoint x="789" y="550" />
            </Array>
          </mxGeometry>
        </mxCell>
        <mxCell id="el8LdiSVNWTU0y29hnF0-37" value="STS&amp;nbsp;&lt;div&gt;AssumeRoleWithWebIdentity&lt;/div&gt;" style="edgeLabel;html=1;align=center;verticalAlign=middle;resizable=0;points=[];" vertex="1" connectable="0" parent="el8LdiSVNWTU0y29hnF0-36">
          <mxGeometry x="0.6438" y="1" relative="1" as="geometry">
            <mxPoint as="offset" />
          </mxGeometry>
        </mxCell>
        <mxCell id="el8LdiSVNWTU0y29hnF0-38" style="edgeStyle=orthogonalEdgeStyle;rounded=0;orthogonalLoop=1;jettySize=auto;html=1;entryX=0;entryY=0.5;entryDx=0;entryDy=0;entryPerimeter=0;startArrow=classic;startFill=1;strokeColor=#808080;strokeWidth=2;" edge="1" parent="1" source="UEzPUAAOIrF-is8g5C7q-109" target="el8LdiSVNWTU0y29hnF0-1">
          <mxGeometry relative="1" as="geometry" />
        </mxCell>
      </root>
    </mxGraphModel>
  </diagram>
</mxfile>
